# xmcd
#
# Track frame offsets: 
#        150
#        24831
#        41531
#        59813
#        76240
#        97911
#        123240
#        143906
#        155581
#        172710
#        190299
#        215025
#
# Disc length: 3038 seconds
#
# Revision: 0
# Processed by: cddbd v1.5.2PL0 Copyright (c) Steve Scherf et al.
# Submitted via: ExactAudioCopy v0.99pb5
#
DISCID=9b0bdc0c
DTITLE=Комбинация - Белый вечер
DYEAR=2004
DGENRE=Pop
TTITLE0=Russian Girls
TTITLE1=Анжелика
TTITLE2=Белый вечер
TTITLE3=Где-то во тьму-таракани
TTITLE4=Ты мой последний луч
TTITLE5=В королевстве трефовом
TTITLE6=Знаю что не любишь
TTITLE7=Вот опять окно
TTITLE8=Черная нитка
TTITLE9=Баба-Яга
TTITLE10=Вдвоем с тобой
TTITLE11=Пойдем со мной
EXTD=
EXTT0=
EXTT1=
EXTT2=
EXTT3=
EXTT4=
EXTT5=
EXTT6=
EXTT7=
EXTT8=
EXTT9=
EXTT10=
EXTT11=
PLAYORDER=
